# xmcd
#
# Track frame offsets:
#	150
#	12672
#	25902
#	36490
#	48340
#	61577
#	71310
#	81910
#	92655
#	103327
#	115117
#	126767
#	137350
#	150155
#	162217
#	174022
#	186455
#	197940
#	210215
#	220302
#	231712
#	242832
#	253970
#	268852
#	278602
#	288310
#	301017
#	314802
#	327410
#	335782
#
# Disc length: 4619 seconds
# Revision: 4
# Processed by: cddbd v1.5.2PL0 Copyright (c) Steve Scherf et al.
# Submitted via: dBpowerAMP V12.0
#
DISCID=bb12091e
DTITLE=Marty Robbins - Country 1951-1958, CD02 - CD05
DYEAR=1991
DGENRE=Country
TTITLE0=What Made You Change Your Mind
TTITLE1=The Way of a Hopeless Love
TTITLE2=Pain and Misery
TTITLE3=Juarez
TTITLE4=I'm Too Big to Cry
TTITLE5=Call Me Up (And I'll Come Calling on You)
TTITLE6=It's a Pity What Money Can Do
TTITLE7=Time Goes By
TTITLE8=This Broken Heart of Mine
TTITLE9=It Looks Like I'm Just in Your Way
TTITLE10=I'll Love You Till the Day I Die
TTITLE11=Don't Let Me Hang Around (If You Don't Care)
TTITLE12=Pray for Me Mother of Mine
TTITLE13=Daddy Loves You
TTITLE14=That's All Right
TTITLE15=Gossip
TTITLE16=Maybellene
TTITLE17=Pretty Mama
TTITLE18=Mean Mama Blues
TTITLE19=Long Gone Lonesome Blues
TTITLE20=I Can't Quit (I've Gone Too Far)
TTITLE21=Singing the Blues
TTITLE22=Tennessee Toddy
TTITLE23=Baby, I Need You (Like I Need You)
TTITLE24=Long Tall Sally
TTITLE25=Mister Teardrop
TTITLE26=Respectfully Miss Brooks
TTITLE27=You Don't Owe Me a Thing
TTITLE28=I'll Know You're Gone
TTITLE29=How Long Will It Be
EXTD=
EXTT0=
EXTT1=
EXTT2=
EXTT3=
EXTT4=
EXTT5=
EXTT6=
EXTT7=
EXTT8=
EXTT9=
EXTT10=
EXTT11=
EXTT12=
EXTT13=
EXTT14=
EXTT15=
EXTT16=
EXTT17=
EXTT18=
EXTT19=
EXTT20=
EXTT21=
EXTT22=
EXTT23=
EXTT24=
EXTT25=
EXTT26=
EXTT27=
EXTT28=
EXTT29=
PLAYORDER=
